<svg xmlns="http://www.w3.org/2000/svg" version="1.1" viewBox="-5.0 -10.0 110.0 135.0">
 <path d="m40.355 6.168c5.0625 0 9.6484 2.0547 12.973 5.375 3.3281 3.3281 5.3828 7.9141 5.3828 12.977 0 5.0664-2.0547 9.6562-5.3789 12.977l-0.11328 0.10547c-3.3164 3.2617-7.8594 5.2734-12.863 5.2734-5.0586 0-9.6484-2.0586-12.973-5.3828-3.3242-3.3164-5.3828-7.9102-5.3828-12.973 0-5.0586 2.0547-9.6445 5.3789-12.969l0.011719-0.011719c3.3242-3.3203 7.9102-5.375 12.965-5.375zm32.332 52.023c3.125 0 5.9609 1.2695 8.0117 3.3203s3.3203 4.8828 3.3203 8.0078c0 3.1172-1.2695 5.9531-3.3242 8.0039-2.0469 2.0547-4.8789 3.3242-8.0039 3.3242-3.1172 0-5.9492-1.2695-8.0039-3.3242-2.0547-2.0469-3.3242-4.8789-3.3242-8.0039 0-3.1211 1.2695-5.9531 3.3164-8 2.0508-2.0547 4.8828-3.3242 8.0078-3.3242zm5.1836 6.1484c-1.3242-1.3242-3.1602-2.1445-5.1836-2.1445s-3.8555 0.82031-5.1797 2.1445c-1.3242 1.3203-2.1445 3.1562-2.1445 5.1797 0 2.0234 0.82031 3.8594 2.1445 5.1797 1.3164 1.3281 3.1523 2.1445 5.1797 2.1445 2.0234 0 3.8594-0.82031 5.1797-2.1445 1.3281-1.3203 2.1445-3.1523 2.1445-5.1797 0-2.0234-0.82031-3.8555-2.1445-5.1797zm1.4688-12.898 0.71875 0.28125 0.71094 0.3125 3.6328-2.7461c0.80469-0.60547 1.9219-0.51172 2.6172 0.18359l5.7227 5.7188c0.73437 0.73438 0.77734 1.8984 0.12891 2.6836l-2.6953 3.5664 0.3125 0.71484 0.28125 0.71875 4.5039 0.625c1 0.13672 1.7227 0.99609 1.7227 1.9766l0.003906 8.0898c0 1.0586-0.82031 1.9258-1.8633 1.9961l-4.3711 0.60547-0.28125 0.72656-0.30859 0.70703 2.7461 3.6328c0.60547 0.80469 0.51172 1.9219-0.18359 2.6172l-5.7188 5.7227c-0.73438 0.73438-1.8984 0.77734-2.6836 0.13281l-3.5664-2.6953-0.70703 0.30859-0.72266 0.28516-0.62891 4.5078c-0.13672 1-0.99609 1.7227-1.9766 1.7227l-8.0898 0.003906c-1.0586 0-1.9258-0.82031-1.9961-1.8633l-0.60547-4.3711c-0.5-0.19531-0.94141-0.37891-1.4297-0.59375l-3.6367 2.7461c-0.80469 0.60547-1.9219 0.51172-2.6172-0.18359l-1.8867-1.8828h-40.395c-2.2617 0-4.3867-0.53906-6.2617-1.5625-1.8711-1.0195-3.4766-2.5156-4.7031-4.4258-1.2266-1.9141-1.9258-3.9922-2.0781-6.1133-0.15234-2.125 0.23828-4.2773 1.1758-6.3438l0.78906-1.6133c0.29297-0.57031 0.57812-1.1016 0.84766-1.5742 0.54297-0.95703 1.7617-1.293 2.7188-0.75 0.95703 0.54297 1.293 1.7617 0.75 2.7188-0.28906 0.50781-0.54688 0.98047-0.76953 1.4141-0.23438 0.46094-0.47266 0.94922-0.70312 1.4531-0.65625 1.457-0.92969 2.9531-0.82812 4.4102 0.10547 1.457 0.59375 2.8945 1.4531 4.2383 0.86328 1.3398 1.9727 2.3828 3.25 3.082 1.2734 0.69531 2.7539 1.0625 4.3555 1.0625h36.41c-0.58984-0.73438-0.58203-1.7891 0.019531-2.5156l2.6953-3.5664-0.3125-0.71094-0.28125-0.71875-4.5078-0.625c-1-0.13672-1.7227-0.99609-1.7227-1.9766l-0.003906-8.0898c0-1.0586 0.82031-1.9258 1.8633-1.9961l4.375-0.60938 0.27734-0.70703 0.3125-0.72266-2.7422-3.6328c-0.62891-0.83594-0.50391-2.0117 0.26562-2.6953l2.0859-2.0859c-1.8359-0.8125-3.7617-1.4766-5.7539-1.9766-2.7773-0.69531-5.6875-1.0625-8.6992-1.0625-4.0742 0-7.9922 0.68359-11.637 1.9375-3.7891 1.3047-7.2852 3.2227-10.359 5.6328-0.86719 0.67578-2.1211 0.52344-2.7969-0.34375-0.67578-0.86719-0.52344-2.1211 0.34375-2.7969 3.4375-2.6914 7.3242-4.8281 11.52-6.2734 4.0547-1.3984 8.4102-2.1562 12.934-2.1562 3.3242 0 6.5664 0.41406 9.668 1.1875 2.707 0.67969 5.3125 1.6406 7.7852 2.8555l0.55078-0.55078c0.71094-0.71484 1.832-0.77734 2.6133-0.18359l3.6367 2.7422 0.71484-0.3125 0.71875-0.28125 0.625-4.5078c0.13672-1 0.99609-1.7227 1.9766-1.7227l8.0898-0.003906c1.0586 0 1.9258 0.82031 1.9961 1.8633l0.60547 4.375zm-0.79688 3.9688c-0.48047-0.19531-0.97266-0.375-1.4688-0.52344-0.77734-0.18359-1.4023-0.82812-1.5195-1.668l-0.55859-4.0117h-4.6172l-0.55469 4.0117c-0.10938 0.75391-0.64062 1.4141-1.4219 1.6406-0.52734 0.15234-1.0508 0.33984-1.5625 0.55078-0.47266 0.19531-0.95312 0.42578-1.4336 0.6875-0.67578 0.39453-1.5508 0.37109-2.2148-0.12891l-3.2383-2.4453-3.2578 3.2617 2.4453 3.2383c0.45312 0.60937 0.53906 1.4492 0.15625 2.1562-0.25781 0.46875-0.5 0.97266-0.71875 1.5078-0.19531 0.47266-0.37109 0.95703-0.51562 1.4492-0.18359 0.77734-0.82812 1.4023-1.668 1.5195l-4.0117 0.55859v4.6172l4.0117 0.55469c0.75391 0.10938 1.4141 0.64062 1.6406 1.4219 0.14844 0.51172 0.33203 1.0312 0.54688 1.5508 0.19531 0.48047 0.42969 0.96094 0.69141 1.4492 0.39453 0.67578 0.37109 1.5508-0.12891 2.2109l-2.4453 3.2344 3.2617 3.2617 3.2344-2.4453c0.60938-0.45312 1.4492-0.53906 2.1562-0.15625 0.45703 0.25 0.92578 0.47656 1.4102 0.67969l0.089843 0.035156c0.48828 0.20312 0.98047 0.37891 1.4648 0.52344 0.77734 0.18359 1.3984 0.82812 1.5156 1.668l0.55469 4.0117h4.6172l0.55859-4.0117c0.10938-0.75391 0.64062-1.4141 1.4219-1.6406 0.51562-0.14844 1.0352-0.33594 1.5547-0.55078 0.47656-0.19531 0.96094-0.42578 1.4414-0.69141 0.67578-0.39453 1.5508-0.37109 2.2148 0.12891l3.2344 2.4453 3.2617-3.2617-2.4453-3.2344c-0.45703-0.60938-0.54688-1.4531-0.15625-2.1641 0.26562-0.48437 0.50781-0.98437 0.71484-1.4883 0.20312-0.48828 0.37891-0.98047 0.52344-1.4648 0.18359-0.77734 0.82812-1.3984 1.668-1.5156l4.0078-0.55469v-4.6172l-4.0078-0.55469c-0.75391-0.10938-1.4141-0.64062-1.6406-1.4219-0.14844-0.51172-0.33203-1.0312-0.54688-1.5508-0.20312-0.49219-0.4375-0.97656-0.69141-1.4492-0.39453-0.67578-0.37109-1.5508 0.12891-2.2148l2.4453-3.2344-3.2617-3.2617-3.2344 2.4453c-0.60937 0.45703-1.4531 0.54688-2.1641 0.15625-0.5-0.27344-0.99609-0.51562-1.4805-0.71484zm-68.223 4.3242c0.71484-0.83594 1.9766-0.93359 2.8125-0.21875 0.83594 0.71484 0.93359 1.9766 0.21875 2.8125l-0.13672 0.16016c-0.71484 0.83594-1.9766 0.93359-2.8125 0.21875-0.83594-0.71484-0.93359-1.9766-0.21875-2.8125zm40.191-45.363c-2.5977-2.5938-6.1875-4.1992-10.152-4.1992-3.9688 0-7.5586 1.6055-10.148 4.1953-2.5977 2.5977-4.2031 6.1875-4.2031 10.156 0 3.9648 1.6094 7.5547 4.2031 10.152 2.5898 2.5977 6.1797 4.2031 10.148 4.2031 3.9219 0 7.4766-1.5703 10.062-4.1094l0.089844-0.09375c2.5977-2.5977 4.2031-6.1836 4.2031-10.152s-1.6055-7.5586-4.1992-10.152z"/></svg>